<svg xmlns="http://www.w3.org/2000/svg" xmlns:xlink="http://www.w3.org/1999/xlink" width="115.222" height="30" viewBox="0 0 115.222 30"><defs><style>.a{fill:#fff;}.b{fill:url(#a);}</style><linearGradient id="a" x1="1.01" y1="-0.255" x2="0.115" y2="1.071" gradientUnits="objectBoundingBox"><stop offset="0" stop-color="#0df"/><stop offset="0.105" stop-color="#02d1fd"/><stop offset="0.29" stop-color="#0ab4f9"/><stop offset="0.533" stop-color="#1584f3"/><stop offset="0.822" stop-color="#2643ea"/><stop offset="1" stop-color="#3117e5"/></linearGradient></defs><g transform="translate(-780.783 -493.338)"><path class="a" d="M780.783,549.841V535.474l4.84-2v2.047c.682-1.429,2.533-2.4,4.775-2.4,3.995,0,6.268,2.533,6.268,6.789v9.938h-4.84v-9.354a2.776,2.776,0,0,0-2.987-3.085,3.113,3.113,0,0,0-3.216,3.247v9.191Z" transform="translate(0 -26.99)"/><path class="a" d="M838.81,550.595v-14.8l4.84-1.568v16.37Z" transform="translate(-39.374 -27.743)"/><path class="b" d="M780.783,505.673v-5.387l15.882-6.949v5.393Z"/><path class="a" d="M862.968,549.841v-16.37h4.84v2.241c.747-1.656,2.5-2.6,4.742-2.6a10.7,10.7,0,0,1,1.267.1v4.547a8.3,8.3,0,0,0-1.624-.163c-2.761,0-4.385,1.559-4.385,4.255v7.989Z" transform="translate(-55.766 -26.99)"/><path class="a" d="M903.3,533.9V511.581l4.84-1.964v10.055c.487-1.43,2.4-2.437,4.871-2.437A7.545,7.545,0,0,1,918.8,519.7a8.362,8.362,0,0,1,2.339,6.008,8.494,8.494,0,0,1-2.339,6.042,7.626,7.626,0,0,1-5.781,2.436c-2.468,0-4.385-1.006-4.871-2.436V533.9Zm11.79-5.261a3.971,3.971,0,0,0,1.2-2.924,3.851,3.851,0,0,0-1.2-2.89,3.992,3.992,0,0,0-2.955-1.2,4.216,4.216,0,0,0-3.053,1.2,3.881,3.881,0,0,0-1.234,2.89,4,4,0,0,0,1.234,2.924,4.327,4.327,0,0,0,3.053,1.169A4.094,4.094,0,0,0,915.093,528.636Z" transform="translate(-83.135 -11.046)"/><path class="a" d="M976.342,535.753v-2.145h4.839v16.37h-4.839v-2.143c-.488,1.43-2.4,2.436-4.873,2.436a7.746,7.746,0,0,1-5.813-2.436,8.6,8.6,0,0,1-2.306-6.042,8.468,8.468,0,0,1,2.306-6.008,7.661,7.661,0,0,1,5.813-2.469C973.938,533.316,975.854,534.323,976.342,535.753Zm-.974,8.964a3.914,3.914,0,0,0,1.267-2.924,3.8,3.8,0,0,0-1.267-2.89,4.089,4.089,0,0,0-3.02-1.2,3.994,3.994,0,0,0-2.957,1.2,3.851,3.851,0,0,0-1.2,2.89,3.971,3.971,0,0,0,1.2,2.924,4.1,4.1,0,0,0,2.957,1.169A4.194,4.194,0,0,0,975.367,544.717Z" transform="translate(-123.879 -27.127)"/><path class="a" d="M1027.844,533.9V511.581l4.84-1.964v9.893c.649-1.43,2.4-2.339,4.579-2.339,3.865,0,6.073,2.533,6.073,6.789V533.9H1038.5v-9.354c0-1.916-1.008-3.085-2.794-3.085a3,3,0,0,0-3.02,3.247V533.9Z" transform="translate(-167.641 -11.046)"/><path class="a" d="M1098.163,535.244a8.023,8.023,0,0,1,2.663,6.138,8.141,8.141,0,0,1-2.663,6.171,9.563,9.563,0,0,1-12.9,0,8.229,8.229,0,0,1-2.63-6.171,8.109,8.109,0,0,1,2.63-6.138,9.471,9.471,0,0,1,12.9,0Zm-9.452,9.191a4.315,4.315,0,0,0,6.042,0,4.243,4.243,0,0,0,1.234-3.053,4.113,4.113,0,0,0-1.234-3.02,4.235,4.235,0,0,0-6.042,0,4.114,4.114,0,0,0-1.233,3.02A4.19,4.19,0,0,0,1088.711,544.436Z" transform="translate(-204.82 -26.716)"/></g></svg>